<svg xmlns="http://www.w3.org/2000/svg" xmlns:xlink="http://www.w3.org/1999/xlink" preserveAspectRatio="xMidYMid meet" width="177" height="131" viewBox="0 0 177 131" style="width:100%;height:100%"><defs><animateMotion repeatCount="indefinite" dur="1.1666667s" begin="0s" xlink:href="#_R_G_L_2_G" fill="freeze" keyTimes="0;0.2;0.4;0.5714286;0.7428571;0.9428571;1" path="M91 65.5 C93.17,65.5 101.83,65.5 104,65.5 C104,65.5 104,65.5 104,65.5 C104,65.5 104,65.5 104,65.5 C104,65.5 104,65.5 104,65.5 C101.83,65.5 93.17,65.5 91,65.5 C91,65.5 91,65.5 91,65.5 " keyPoints="0;0.5;0.5;0.5;0.5;1;1" keySplines="0.333 0 0.667 1;0.333 0.333 0.667 0.667;0.333 0.333 0.667 0.667;0.333 0.333 0.667 0.667;0.333 0 0.667 1;0 0 0 0" calcMode="spline"/><animateMotion repeatCount="indefinite" dur="1.1666667s" begin="0s" xlink:href="#_R_G_L_0_G" fill="freeze" keyTimes="0;0.2;0.4;0.5714286;0.7428571;1" path="M144 65 C144.08,65 142.33,65 144.5,65 C146.67,65 154.92,65 157,65 C157,65 157,65 157,65 C154.83,65 146.17,65 144,65 C144,65 144,65 144,65 " keyPoints="0;0.06;0.52;0.52;1;1" keySplines="0.333 0 0.667 1;0.333 0 0.667 1;0.167 0.167 0.667 0.667;0.167 0 0.667 1;0 0 0 0" calcMode="spline"/><animate attributeType="XML" attributeName="opacity" dur="1s" from="0" to="1" xlink:href="#time_group"/></defs><g id="_R_G"><g id="_R_G_L_2_G"><path id="_R_G_L_2_G_D_0_P_0" fill="#ffffff" fill-opacity="1" fill-rule="nonzero" d=" M-35.25 -10.5 C-29.59,-10.5 -25,-5.91 -25,-0.25 C-25,5.41 -29.59,10 -35.25,10 C-40.91,10 -45.5,5.41 -45.5,-0.25 C-45.5,-5.91 -40.91,-10.5 -35.25,-10.5z "/><path id="_R_G_L_2_G_D_1_P_0" stroke="#c2c2c2" stroke-linecap="round" stroke-linejoin="round" fill="none" stroke-width="0" stroke-opacity="1" d=" M-35.25 -10.5 C-29.59,-10.5 -25,-5.91 -25,-0.25 C-25,5.41 -29.59,10 -35.25,10 C-40.91,10 -45.5,5.41 -45.5,-0.25 C-45.5,-5.91 -40.91,-10.5 -35.25,-10.5z "/></g><g id="_R_G_L_1_G" transform=" translate(124, 65.5) translate(0, 0)"><path id="_R_G_L_1_G_D_0_P_0" fill="#ffffff" fill-opacity="1" fill-rule="nonzero" d=" M-35.25 -10.5 C-29.59,-10.5 -25,-5.91 -25,-0.25 C-25,5.41 -29.59,10 -35.25,10 C-40.91,10 -45.5,5.41 -45.5,-0.25 C-45.5,-5.91 -40.91,-10.5 -35.25,-10.5z "/><path id="_R_G_L_1_G_D_1_P_0" stroke="#c2c2c2" stroke-linecap="round" stroke-linejoin="round" fill="none" stroke-width="0" stroke-opacity="1" d=" M-35.25 -10.5 C-29.59,-10.5 -25,-5.91 -25,-0.25 C-25,5.41 -29.59,10 -35.25,10 C-40.91,10 -45.5,5.41 -45.5,-0.25 C-45.5,-5.91 -40.91,-10.5 -35.25,-10.5z "/></g><g id="_R_G_L_0_G"><path id="_R_G_L_0_G_D_0_P_0" fill="#ffffff" fill-opacity="1" fill-rule="nonzero" d=" M-35.25 -10.5 C-29.59,-10.5 -25,-5.91 -25,-0.25 C-25,5.41 -29.59,10 -35.25,10 C-40.91,10 -45.5,5.41 -45.5,-0.25 C-45.5,-5.91 -40.91,-10.5 -35.25,-10.5z "/><path id="_R_G_L_0_G_D_1_P_0" stroke="#c2c2c2" stroke-linecap="round" stroke-linejoin="round" fill="none" stroke-width="0" stroke-opacity="1" d=" M-35.25 -10.5 C-29.59,-10.5 -25,-5.91 -25,-0.25 C-25,5.41 -29.59,10 -35.25,10 C-40.91,10 -45.5,5.41 -45.5,-0.25 C-45.5,-5.91 -40.91,-10.5 -35.25,-10.5z "/></g></g><g id="time_group"/></svg>
