<?xml version="1.0" encoding="UTF-8"?>
<svg id="Layer_1" data-name="Layer 1" xmlns="http://www.w3.org/2000/svg" xmlns:xlink="http://www.w3.org/1999/xlink" viewBox="0 0 1753.19 321.28">
  <defs>
    <style>
      .cls-1 {
        fill: url(#radial-gradient-8);
      }

      .cls-1, .cls-2, .cls-3, .cls-4, .cls-5, .cls-6, .cls-7, .cls-8, .cls-9, .cls-10, .cls-11 {
        stroke-width: 0px;
      }

      .cls-2 {
        fill: url(#radial-gradient-2);
      }

      .cls-3 {
        fill: url(#radial-gradient-7);
      }

      .cls-4 {
        fill: url(#radial-gradient-5);
      }

      .cls-5 {
        fill: url(#radial-gradient);
      }

      .cls-6 {
        fill: url(#radial-gradient-10);
      }

      .cls-7 {
        fill: url(#radial-gradient-6);
      }

      .cls-8 {
        fill: url(#radial-gradient-9);
      }

      .cls-9 {
        fill: url(#radial-gradient-3);
      }

      .cls-10 {
        fill: url(#radial-gradient-11);
      }

      .cls-11 {
        fill: url(#radial-gradient-4);
      }
    </style>
    <radialGradient id="radial-gradient" cx="212.33" cy="143.63" fx="212.33" fy="143.63" r="1273.25" gradientTransform="translate(0 327.76) scale(1 -1)" gradientUnits="userSpaceOnUse">
      <stop offset="0" stop-color="#34638a"/>
      <stop offset=".53" stop-color="#9cc5eb"/>
      <stop offset="1" stop-color="#000"/>
    </radialGradient>
    <radialGradient id="radial-gradient-2" cy="143.63" fy="143.63" r="1273.25" xlink:href="#radial-gradient"/>
    <radialGradient id="radial-gradient-3" r="1273.25" xlink:href="#radial-gradient"/>
    <radialGradient id="radial-gradient-4" cx="212.33" fx="212.33" r="1273.25" xlink:href="#radial-gradient"/>
    <radialGradient id="radial-gradient-5" cy="143.63" fy="143.63" r="1273.25" xlink:href="#radial-gradient"/>
    <radialGradient id="radial-gradient-6" cx="212.33" cy="143.63" fx="212.33" fy="143.63" r="1273.25" xlink:href="#radial-gradient"/>
    <radialGradient id="radial-gradient-7" cx="212.33" cy="143.63" fx="212.33" fy="143.63" r="1273.25" xlink:href="#radial-gradient"/>
    <radialGradient id="radial-gradient-8" r="1273.25" xlink:href="#radial-gradient"/>
    <radialGradient id="radial-gradient-9" cx="212.33" cy="143.63" fx="212.33" fy="143.63" r="1273.25" xlink:href="#radial-gradient"/>
    <radialGradient id="radial-gradient-10" cy="143.63" fy="143.63" r="1273.25" xlink:href="#radial-gradient"/>
    <radialGradient id="radial-gradient-11" cx="212.33" fx="212.33" r="1273.25" xlink:href="#radial-gradient"/>
  </defs>
  <path class="cls-5" d="m369.69,320.86c-37.54-3.07-65.71-15.47-88.35-39.2-11.89-12.47-23.34-25.43-34.1-38.88-21.06-26.32-41.14-53.43-62.4-79.58-7.39-9.08-16.35-17.29-25.84-24.18-30.77-22.32-72.69-16.19-96.76,13.36-19.92,24.45-21.97,56.76-5.31,83.61,16.69,26.89,48.74,41.09,77.65,34.18,16.11-3.85,28.47-14.2,40.36-24.87,7.64-6.85,14.42-14.69,21.39-22.26,4.65-5.05,12.41-5.12,17.2-.2,6.7,6.88,13.1,14.03,19.64,21.07,3.97,4.27,4.24,8.84.38,13.15-29.72,33.28-63.46,61.96-110.1,63.06-47.2,1.11-84.95-20.89-107.81-62.84C-14.04,202.84-2.4,128.76,58.57,90.11c27.54-17.46,58.15-20.54,90.01-12.59,22.86,5.7,40.08,20.41,55.67,36.13,18.21,18.37,33.93,39.26,50.15,59.53,18.32,22.91,35.43,46.82,54.1,69.43,20.05,24.29,46.21,35.78,77.97,31.3,21.54-3.04,36.99-16.07,48.93-33.44,3.24-4.71,6.52-6.21,12.13-5.67,7.13.68,14.39.18,21.59-.03,6.34-.19,8.66,3.16,7.15,8.73-1.6,5.92-3.33,12.07-6.41,17.29-23.59,39.92-60.15,57.23-100.17,60.07Z"/>
  <path class="cls-2" d="m570.1,122.71c5.65-3.79,9.38-6.4,13.21-8.84,28.42-18.11,58.31-27.28,91.42-13.93,34.32,13.84,49.05,42.2,50.56,76.6,1.95,44.54.37,89.23.61,133.85.04,7.91-3.39,10.57-10.69,10.52-10-.07-20,.38-29.99.36-10.7-.03-14.4-3.66-14.62-14.74-.25-12.98-.07-25.96-.07-38.94,0-26.5.11-53.01-.02-79.51-.11-24.16-14.04-41.83-37.27-47.71-23.07-5.84-44.54,3.08-54.93,24.84-4.62,9.68-7.7,21.02-7.96,31.7-.94,37.84-.53,75.72-.21,113.58.08,8.93-3.21,11.75-14.38,10.17-8.21-1.16-16.54-1.1-24.73.2-9.46,1.49-13.39-2.58-15.02-9.67-.78-3.38-.95-6.97-.96-10.46-.09-64.37-.14-128.73-.14-193.1,0-13.66.44-13.6,14.95-13.68,9.13-.05,18.27-.05,27.4-.02,11.02.04,10.91-.11,11.33,10.99.19,5.31.88,10.61,1.51,17.79Z"/>
  <path class="cls-9" d="m787.61,213.62c0-21.05-.05-42.11.03-63.16.03-7.36-3.55-9.74-10.65-9.63-14.69.22-14.82-.06-15.38-14.66-.3-7.83.04-15.68-.08-23.51-.09-6.09,2.54-8.86,8.79-8.69,18.12.49,17.6-.59,17.03-16.79-1-28.31,12.22-48.22,34.79-63.57,15.68-10.66,33.4-11.38,51.2-11.88,1.91-.05,5.53,3.77,5.64,5.93.59,11.32.28,22.69.34,34.04.03,5.6-4.02,6.09-8.12,7.05-17.38,4.08-27.15,15.32-28.69,32.7-.75,8.47,1.53,11.49,10.09,12.07,7,.48,14.04.43,21.06.33,6.24-.09,8.48,2.89,7.53,10.36-1.06,8.38-1.33,16.87-.12,25.24,1.05,7.29-1.3,11.18-7.52,11.07-5.65-.1-11.33-.3-16.95-.86-10.29-1.03-13.59,1.21-13.8,11.62-.23,11.05.8,22.13.83,33.19.12,41.09.11,82.18.04,123.27-.02,12.01-1.48,13.32-13.69,13.41-10.53.07-21.07-.13-31.6.12-6.82.16-9.82-2.56-9.69-9.57.23-12.16-.09-24.33-.1-36.49-.03-20.53-.01-41.06-.01-61.59-.32,0-.64,0-.97,0Z"/>
  <path class="cls-11" d="m407.29,225.43c-19.83-.54-39.66-1.01-59.48-1.66-9.09-.3-11-2.09-11.14-11.01-.12-7.46.5-14.94.68-22.41.14-5.56,2.94-8.58,8.38-9.16,3.82-.4,7.67-.98,11.49-.88,24.21.62,48.41,1.45,72.61,2.13,9.14.26,10.05-1.09,6.95-9.68-11.05-30.61-43.68-52.5-75.66-48.55-16.93,2.09-32.72,9.64-45.43,21.57-8.79,8.25-16.84,17.38-24.53,26.68-9.95,12.04-21.38,12.17-30.43-.52-2.39-3.35-4.4-6.97-6.48-10.53-4.28-7.35-4.42-14.64.68-21.7,19.18-26.56,43.61-46.59,74.35-58.15,39.93-15.02,77.08-8.34,110.64,17.14,19.93,15.14,31.37,36.42,38.6,60.15,5.61,18.41,5.05,37.16,3.63,55.96-.67,8.87-5.24,12.43-15.38,12.21-19.83-.42-39.66-1.05-59.48-1.59,0,0,0,0,0,0Z"/>
  <path class="cls-4" d="m920.5,105.66c.01-11.41.45-11.81,11.91-11.79,11.61.03,23.22.2,34.83.15,5.24-.02,8.18,2,8.15,7.58-.05,9.41.02,18.82.02,28.23-.02,59.44-.03,118.88-.06,178.31-.01,11.24-1.22,12.53-12.51,12.7-9.99.16-21.6.2-31.59.05-9.13-.14-10.9-1.87-10.94-11.07-.11-26.48.07-52.95.07-79.43-.47,0,.09-83.15.12-124.73Z"/>
  <path class="cls-7" d="m915.48,33.13C915.62,14.1,929.36.02,947.83,0c18.17-.02,34.91,15.36,35.07,32.2.15,16.17-18.62,35.39-34.36,35.17-17.6-.24-33.19-16.4-33.06-34.24Z"/>
  <path class="cls-3" d="m1752.2,246.12c-7.03,21.59-18.38,39.65-36.34,52.73-37.47,27.3-77.95,27.91-118.09,8.33-38.24-18.66-55.56-52.15-56.72-94.13-.34-12.41-1.11-25.09.88-37.22,7.34-44.74,32.62-74.88,76.84-86.7,43.75-11.7,82.77-2.73,113.48,32.17,13.06,14.83,22.27,31.74,20.79,52.85-.83,11.84-.37,23.79-.09,35.68.15,6.4-1.71,8.82-8.74,8.76-45.44-.34-90.88-.15-136.33-.16-13.04,0-14.8,2.31-10.88,14.77,7.22,22.93,22.94,36.73,46.57,39.51,20.05,2.36,36.14-6.3,48.27-22.59,1.96-2.63,5.93-5.2,9.04-5.28,15.66-.41,31.35,0,47.02.18,1.23.02,2.47.61,4.3,1.1Zm-90.09-64.86v.36c10,0,20,.21,29.99-.07,8.57-.24,10.61-2.91,8.65-11.32-2.9-12.39-9.79-22.15-20.62-28.93-32.13-20.13-71.5-5.98-83.65,30.01-2.77,8.2-1.65,9.87,7.44,9.92,19.39.11,38.79.03,58.19.03Z"/>
  <path class="cls-1" d="m1071.55,93.88v26.96c5.29-3.71,9.65-6.42,13.61-9.61,30.63-24.63,70-28.35,102.13-8.23,23.58,14.77,38.63,37.05,39.7,64.61,1.89,48.88.64,97.89.78,146.84.02,5.72-2.59,7.66-11.53,5.77-9.09-1.92-18.48-2.17-27.54-.11-10.67,2.43-13.81.32-13.84-6.38-.09-22.99-.32-45.97-.56-68.96-.2-18.66-.09-37.33-.82-55.96-1.07-27.09-19.45-46.99-45.36-49.98-23.61-2.72-45.24,12.6-52.54,37.87-1.99,6.9-3.19,14.28-3.26,21.45-.34,37.05-.41,74.11-.05,111.17.09,9.44-3.26,12.5-14.45,11.12-8.63-1.06-17.36-1.28-25.98-.12-9.33,1.26-12.7-1.35-12.8-9.05-.36-27-1.44-53.99-1.69-81-.38-41.92-.34-83.85-.39-125.77-.01-10.56.14-10.59,10.86-10.62,14.28-.03,28.55,0,43.73,0Z"/>
  <path class="cls-8" d="m1461.43,203.63c0,15.68-.02,31.36.01,47.04.02,14.46,7.23,22.38,21.74,23.29,7.27.45,14.59.23,21.89.05,4.5-.11,7.15.98,7.01,6.26-.29,10.27-.09,20.55-.25,30.82-.08,4.91-1.25,9.82-7.34,9.66-17.24-.45-34.7.13-51.64-2.49-30.52-4.73-46.75-31.52-46.8-59.54-.05-32.71,0-65.43-.01-98.14,0-3.78-.19-7.57-.16-11.35.05-5.55-1.93-8.03-8.15-7.99-18.73.12-18.71-.16-18.92-19.28-.07-6.76-.05-13.53-.42-20.27-.27-4.96,1.78-6.46,6.58-6.73,6.82-.38,15.99.58,19.67-3.29,3.89-4.09.57-15.15,1.47-21.91.92-6.95,1.25-13.98.24-20.92-1.22-8.4.93-10.77,8.65-9.9,11.98,1.36,24.06,1.46,36.07.45,7.75-.65,10.69.54,10.5,7.31-.35,12.7.33,25.42-.09,38.11-.24,7.22,2.93,9.78,9.51,9.76,11.35-.04,22.71.12,34.06-.08,5.43-.1,7.3,2,6.94,7.84-.62,10.15-.96,20.34-.06,30.47.61,6.9-1.84,8.84-7.58,8.73-10.27-.19-20.55-.09-30.82,0-11.56.11-11.95.55-11.95,11.81.01,16.76,0,33.52,0,50.29h-.15Z"/>
  <path class="cls-6" d="m1339.41,207.39c0,34.04.09,68.08-.05,102.11-.05,10.93-.33,11.08-11.45,11.34-11.34.27-22.7-.15-34.02.39-7.25.35-9.51-2.94-9.55-9.46-.08-14.32-.46-28.63-.53-42.94-.27-51.6-.72-103.19-.56-154.79.07-21.81-1.77-16.72,17.81-17.74,9.97-.52,19.99.07,29.98-.21,6.12-.17,8.4,1.8,8.33,8.39-.33,34.3-.15,68.6-.15,102.89.05.02.12.02.19.02Z"/>
  <path class="cls-10" d="m1312.57,3.01c19.23.3,34.2,15.03,33.9,33.38-.28,17.1-17.51,34.08-34.08,33.59-17.66-.53-36.38-17.44-36.39-32.9-.01-18.79,16.72-34.37,36.57-34.07Z"/>
</svg>