<?xml version="1.0" encoding="utf-8"?>
<!-- Generator: Adobe Illustrator 27.8.1, SVG Export Plug-In . SVG Version: 6.00 Build 0)  -->
<svg version="1.1" id="Layer_1" xmlns="http://www.w3.org/2000/svg" xmlns:xlink="http://www.w3.org/1999/xlink" x="0px" y="0px"
	 viewBox="0 0 113 15" style="enable-background:new 0 0 113 15;" xml:space="preserve">
<style type="text/css">
	.st0{fill:#227BF3;}
</style>
<path class="st0" d="M2.7,7.5C6.7,6.5,8.9,3.9,10,0c1.1,3.9,3.4,6.5,7.4,7.5c-4,1-6.3,3.5-7.4,7.5C8.9,11.1,6.7,8.5,2.7,7.5z"/>
<path class="st0" d="M25.2,7.5c4.1-1,6.3-3.6,7.4-7.5C33.7,3.9,36,6.5,40,7.5c-4,1-6.3,3.5-7.4,7.5C31.5,11.1,29.3,8.5,25.2,7.5z"/>
<path class="st0" d="M48.5,7.5c4.1-1,6.3-3.6,7.4-7.5c1.1,3.9,3.4,6.5,7.4,7.5c-4,1-6.3,3.5-7.4,7.5C54.8,11,52.5,8.5,48.5,7.5z"/>
<path class="st0" d="M72.2,7.5c4.1-1,6.3-3.6,7.4-7.5c1.1,3.9,3.4,6.5,7.4,7.5c-4,1-6.3,3.5-7.4,7.5C78.5,11,76.2,8.5,72.2,7.5z"/>
<path class="st0" d="M95.5,7.5c4.1-1,6.3-3.6,7.4-7.5c1.1,3.9,3.4,6.5,7.4,7.5c-4,1-6.3,3.5-7.4,7.5C101.8,11,99.5,8.5,95.5,7.5z"/>
</svg>
