<?xml version="1.0" encoding="utf-8"?>
<!-- Generator: Adobe Illustrator 27.8.1, SVG Export Plug-In . SVG Version: 6.00 Build 0)  -->
<svg version="1.1" id="Layer_1" xmlns="http://www.w3.org/2000/svg" xmlns:xlink="http://www.w3.org/1999/xlink" x="0px" y="0px"
	 viewBox="0 0 1758 339.9" style="enable-background:new 0 0 1758 339.9;" xml:space="preserve">
<style type="text/css">
	.st0{fill:url(#SVGID_1_);}
	.st1{fill:url(#SVGID_00000023967565067496876750000011979271836566848941_);}
	.st2{fill:url(#SVGID_00000114769770625317983470000016982558761975797431_);}
	.st3{fill:url(#SVGID_00000047017990788554845450000013393780754722382500_);}
	.st4{fill:url(#SVGID_00000008850437986364640740000010861041818085871004_);}
	.st5{fill:url(#SVGID_00000005958704011010939280000017648375517482820258_);}
	.st6{fill:url(#SVGID_00000075147417645652874320000004439572586274907521_);}
	.st7{fill:url(#SVGID_00000099663372454299330770000013475498250354989200_);}
	.st8{fill:url(#SVGID_00000023963309290853182550000006582932225762662036_);}
	.st9{fill:url(#SVGID_00000098926063778399627380000004309903704981062330_);}
	.st10{fill:url(#SVGID_00000023255249599122967700000013898559750826157466_);}
</style>
<radialGradient id="SVGID_1_" cx="216.1393" cy="191.2465" r="1273.2543" gradientUnits="userSpaceOnUse">
	<stop  offset="0" style="stop-color:#34638A"/>
	<stop  offset="0.5318" style="stop-color:#9CC5EB"/>
	<stop  offset="1" style="stop-color:#FFFFFF"/>
</radialGradient>
<path class="st0" d="M373.5,327.98c-37.54-3.07-65.71-15.47-88.35-39.2c-11.89-12.47-23.34-25.43-34.1-38.88
	c-21.06-26.32-41.14-53.43-62.4-79.58c-7.39-9.08-16.35-17.29-25.84-24.18c-30.77-22.32-72.69-16.19-96.76,13.36
	c-19.92,24.45-21.97,56.76-5.31,83.61c16.69,26.89,48.74,41.09,77.65,34.18c16.11-3.85,28.47-14.2,40.36-24.87
	c7.64-6.85,14.42-14.69,21.39-22.26c4.65-5.05,12.41-5.12,17.2-0.2c6.7,6.88,13.1,14.03,19.64,21.07c3.97,4.27,4.24,8.84,0.38,13.15
	c-29.72,33.28-63.46,61.96-110.1,63.06c-47.2,1.11-84.95-20.89-107.81-62.84C-10.23,209.96,1.41,135.88,62.38,97.23
	c27.54-17.46,58.15-20.54,90.01-12.59c22.86,5.7,40.08,20.41,55.67,36.13c18.21,18.37,33.93,39.26,50.15,59.53
	c18.32,22.91,35.43,46.82,54.1,69.43c20.05,24.29,46.21,35.78,77.97,31.3c21.54-3.04,36.99-16.07,48.93-33.44
	c3.24-4.71,6.52-6.21,12.13-5.67c7.13,0.68,14.39,0.18,21.59-0.03c6.34-0.19,8.66,3.16,7.15,8.73c-1.6,5.92-3.33,12.07-6.41,17.29
	C450.08,307.83,413.52,325.14,373.5,327.98z"/>
<radialGradient id="SVGID_00000103253336354190955510000016139213530644798899_" cx="216.1393" cy="191.2465" r="1273.2543" gradientUnits="userSpaceOnUse">
	<stop  offset="0" style="stop-color:#34638A"/>
	<stop  offset="0.5318" style="stop-color:#9CC5EB"/>
	<stop  offset="1" style="stop-color:#FFFFFF"/>
</radialGradient>
<path style="fill:url(#SVGID_00000103253336354190955510000016139213530644798899_);" d="M573.91,129.83
	c5.65-3.79,9.38-6.4,13.21-8.84c28.42-18.11,58.31-27.28,91.42-13.93c34.32,13.84,49.05,42.2,50.56,76.6
	c1.95,44.54,0.37,89.23,0.61,133.85c0.04,7.91-3.39,10.57-10.69,10.52c-10-0.07-20,0.38-29.99,0.36
	c-10.7-0.03-14.4-3.66-14.62-14.74c-0.25-12.98-0.07-25.96-0.07-38.94c0-26.5,0.11-53.01-0.02-79.51
	c-0.11-24.16-14.04-41.83-37.27-47.71c-23.07-5.84-44.54,3.08-54.93,24.84c-4.62,9.68-7.7,21.02-7.96,31.7
	c-0.94,37.84-0.53,75.72-0.21,113.58c0.08,8.93-3.21,11.75-14.38,10.17c-8.21-1.16-16.54-1.1-24.73,0.2
	c-9.46,1.49-13.39-2.58-15.02-9.67c-0.78-3.38-0.95-6.97-0.96-10.46c-0.09-64.37-0.14-128.73-0.14-193.1
	c0-13.66,0.44-13.6,14.95-13.68c9.13-0.05,18.27-0.05,27.4-0.02c11.02,0.04,10.91-0.11,11.33,10.99
	C572.59,117.35,573.28,122.65,573.91,129.83z"/>
<radialGradient id="SVGID_00000039096362908544358060000000513717032717860236_" cx="216.1393" cy="191.2465" r="1273.2543" gradientUnits="userSpaceOnUse">
	<stop  offset="0" style="stop-color:#34638A"/>
	<stop  offset="0.5318" style="stop-color:#9CC5EB"/>
	<stop  offset="1" style="stop-color:#FFFFFF"/>
</radialGradient>
<path style="fill:url(#SVGID_00000039096362908544358060000000513717032717860236_);" d="M791.42,220.74
	c0-21.05-0.05-42.11,0.03-63.16c0.03-7.36-3.55-9.74-10.65-9.63c-14.69,0.22-14.82-0.06-15.38-14.66
	c-0.3-7.83,0.04-15.68-0.08-23.51c-0.09-6.09,2.54-8.86,8.79-8.69c18.12,0.49,17.6-0.59,17.03-16.79
	c-1-28.31,12.22-48.22,34.79-63.57c15.68-10.66,33.4-11.38,51.2-11.88c1.91-0.05,5.53,3.77,5.64,5.93
	c0.59,11.32,0.28,22.69,0.34,34.04c0.03,5.6-4.02,6.09-8.12,7.05c-17.38,4.08-27.15,15.32-28.69,32.7
	c-0.75,8.47,1.53,11.49,10.09,12.07c7,0.48,14.04,0.43,21.06,0.33c6.24-0.09,8.48,2.89,7.53,10.36c-1.06,8.38-1.33,16.87-0.12,25.24
	c1.05,7.29-1.3,11.18-7.52,11.07c-5.65-0.1-11.33-0.3-16.95-0.86c-10.29-1.03-13.59,1.21-13.8,11.62
	c-0.23,11.05,0.8,22.13,0.83,33.19c0.12,41.09,0.11,82.18,0.04,123.27c-0.02,12.01-1.48,13.32-13.69,13.41
	c-10.53,0.07-21.07-0.13-31.6,0.12c-6.82,0.16-9.82-2.56-9.69-9.57c0.23-12.16-0.09-24.33-0.1-36.49
	c-0.03-20.53-0.01-41.06-0.01-61.59C792.07,220.73,791.75,220.74,791.42,220.74z"/>
<radialGradient id="SVGID_00000032649827684161239290000001995764294300132799_" cx="216.1393" cy="191.2465" r="1273.2543" gradientUnits="userSpaceOnUse">
	<stop  offset="0" style="stop-color:#34638A"/>
	<stop  offset="0.5318" style="stop-color:#9CC5EB"/>
	<stop  offset="1" style="stop-color:#FFFFFF"/>
</radialGradient>
<path style="fill:url(#SVGID_00000032649827684161239290000001995764294300132799_);" d="M411.1,232.55
	c-19.83-0.54-39.66-1.01-59.48-1.66c-9.09-0.3-11-2.09-11.14-11.01c-0.12-7.46,0.5-14.94,0.68-22.41c0.14-5.56,2.94-8.58,8.38-9.16
	c3.82-0.4,7.67-0.98,11.49-0.88c24.21,0.62,48.41,1.45,72.61,2.13c9.14,0.26,10.05-1.09,6.95-9.68
	c-11.05-30.61-43.68-52.5-75.66-48.55c-16.93,2.09-32.72,9.64-45.43,21.57c-8.79,8.25-16.84,17.38-24.53,26.68
	c-9.95,12.04-21.38,12.17-30.43-0.52c-2.39-3.35-4.4-6.97-6.48-10.53c-4.28-7.35-4.42-14.64,0.68-21.7
	c19.18-26.56,43.61-46.59,74.35-58.15c39.93-15.02,77.08-8.34,110.64,17.14c19.93,15.14,31.37,36.42,38.6,60.15
	c5.61,18.41,5.05,37.16,3.63,55.96c-0.67,8.87-5.24,12.43-15.38,12.21c-19.83-0.42-39.66-1.05-59.48-1.59
	C411.1,232.56,411.1,232.55,411.1,232.55z"/>
<radialGradient id="SVGID_00000080898318882981681700000011619598694972289462_" cx="216.1393" cy="191.2465" r="1273.2543" gradientUnits="userSpaceOnUse">
	<stop  offset="0" style="stop-color:#34638A"/>
	<stop  offset="0.5318" style="stop-color:#9CC5EB"/>
	<stop  offset="1" style="stop-color:#FFFFFF"/>
</radialGradient>
<path style="fill:url(#SVGID_00000080898318882981681700000011619598694972289462_);" d="M924.31,112.78
	c0.01-11.41,0.45-11.81,11.91-11.79c11.61,0.03,23.22,0.2,34.83,0.15c5.24-0.02,8.18,2,8.15,7.58c-0.05,9.41,0.02,18.82,0.02,28.23
	c-0.02,59.44-0.03,118.88-0.06,178.31c-0.01,11.24-1.22,12.53-12.51,12.7c-9.99,0.16-21.6,0.2-31.59,0.05
	c-9.13-0.14-10.9-1.87-10.94-11.07c-0.11-26.48,0.07-52.95,0.07-79.43C923.72,237.52,924.28,154.36,924.31,112.78z"/>
<radialGradient id="SVGID_00000054228565784552059090000009601898286916977340_" cx="216.1393" cy="191.2465" r="1273.2543" gradientUnits="userSpaceOnUse">
	<stop  offset="0" style="stop-color:#34638A"/>
	<stop  offset="0.5318" style="stop-color:#9CC5EB"/>
	<stop  offset="1" style="stop-color:#FFFFFF"/>
</radialGradient>
<path style="fill:url(#SVGID_00000054228565784552059090000009601898286916977340_);" d="M919.29,40.25
	c0.14-19.03,13.88-33.11,32.35-33.13c18.17-0.02,34.91,15.36,35.07,32.2c0.15,16.17-18.62,35.39-34.36,35.17
	C934.75,74.25,919.16,58.09,919.29,40.25z"/>
<radialGradient id="SVGID_00000178180354627665230150000014485818130544818082_" cx="216.1393" cy="191.2465" r="1273.2543" gradientUnits="userSpaceOnUse">
	<stop  offset="0" style="stop-color:#34638A"/>
	<stop  offset="0.5318" style="stop-color:#9CC5EB"/>
	<stop  offset="1" style="stop-color:#FFFFFF"/>
</radialGradient>
<path style="fill:url(#SVGID_00000178180354627665230150000014485818130544818082_);" d="M1756.01,253.24
	c-7.03,21.59-18.38,39.65-36.34,52.73c-37.47,27.3-77.95,27.91-118.09,8.33c-38.24-18.66-55.56-52.15-56.72-94.13
	c-0.34-12.41-1.11-25.09,0.88-37.22c7.34-44.74,32.62-74.88,76.84-86.7c43.75-11.7,82.77-2.73,113.48,32.17
	c13.06,14.83,22.27,31.74,20.79,52.85c-0.83,11.84-0.37,23.79-0.09,35.68c0.15,6.4-1.71,8.82-8.74,8.76
	c-45.44-0.34-90.88-0.15-136.33-0.16c-13.04,0-14.8,2.31-10.88,14.77c7.22,22.93,22.94,36.73,46.57,39.51
	c20.05,2.36,36.14-6.3,48.27-22.59c1.96-2.63,5.93-5.2,9.04-5.28c15.66-0.41,31.35-0.01,47.02,0.18
	C1752.94,252.16,1754.18,252.75,1756.01,253.24z M1665.92,188.38c0,0.12,0,0.24,0,0.36c10,0,20,0.21,29.99-0.07
	c8.57-0.24,10.61-2.91,8.65-11.32c-2.9-12.39-9.79-22.15-20.62-28.93c-32.13-20.13-71.5-5.98-83.65,30.01
	c-2.77,8.2-1.65,9.87,7.44,9.92C1627.12,188.46,1646.52,188.38,1665.92,188.38z"/>
<radialGradient id="SVGID_00000053518261153494787620000001993471979787105169_" cx="216.1393" cy="191.2465" r="1273.2543" gradientUnits="userSpaceOnUse">
	<stop  offset="0" style="stop-color:#34638A"/>
	<stop  offset="0.5318" style="stop-color:#9CC5EB"/>
	<stop  offset="1" style="stop-color:#FFFFFF"/>
</radialGradient>
<path style="fill:url(#SVGID_00000053518261153494787620000001993471979787105169_);" d="M1075.36,101v26.96
	c5.29-3.71,9.65-6.42,13.61-9.61c30.63-24.63,70-28.35,102.13-8.23c23.58,14.77,38.63,37.05,39.7,64.61
	c1.89,48.88,0.64,97.89,0.78,146.84c0.02,5.72-2.59,7.66-11.53,5.77c-9.09-1.92-18.48-2.17-27.54-0.11
	c-10.67,2.43-13.81,0.32-13.84-6.38c-0.09-22.99-0.32-45.97-0.56-68.96c-0.2-18.66-0.09-37.33-0.82-55.96
	c-1.07-27.09-19.45-46.99-45.36-49.98c-23.61-2.72-45.24,12.6-52.54,37.87c-1.99,6.9-3.19,14.28-3.26,21.45
	c-0.34,37.05-0.41,74.11-0.05,111.17c0.09,9.44-3.26,12.5-14.45,11.12c-8.63-1.06-17.36-1.28-25.98-0.12
	c-9.33,1.26-12.7-1.35-12.8-9.05c-0.36-27-1.44-53.99-1.69-81c-0.38-41.92-0.34-83.85-0.39-125.77
	c-0.01-10.56,0.14-10.59,10.86-10.62C1045.91,100.97,1060.18,101,1075.36,101z"/>
<radialGradient id="SVGID_00000103956488498017636450000007589149883532892040_" cx="216.1393" cy="191.2465" r="1273.2543" gradientUnits="userSpaceOnUse">
	<stop  offset="0" style="stop-color:#34638A"/>
	<stop  offset="0.5318" style="stop-color:#9CC5EB"/>
	<stop  offset="1" style="stop-color:#FFFFFF"/>
</radialGradient>
<path style="fill:url(#SVGID_00000103956488498017636450000007589149883532892040_);" d="M1465.24,210.75
	c0,15.68-0.02,31.36,0.01,47.04c0.02,14.46,7.23,22.38,21.74,23.29c7.27,0.45,14.59,0.23,21.89,0.05c4.5-0.11,7.15,0.98,7.01,6.26
	c-0.29,10.27-0.09,20.55-0.25,30.82c-0.08,4.91-1.25,9.82-7.34,9.66c-17.24-0.45-34.7,0.13-51.64-2.49
	c-30.52-4.73-46.75-31.52-46.8-59.54c-0.05-32.71,0-65.43-0.01-98.14c0-3.78-0.19-7.57-0.16-11.35c0.05-5.55-1.93-8.03-8.15-7.99
	c-18.73,0.12-18.71-0.16-18.92-19.28c-0.07-6.76-0.05-13.53-0.42-20.27c-0.27-4.96,1.78-6.46,6.58-6.73
	c6.82-0.38,15.99,0.58,19.67-3.29c3.89-4.09,0.57-15.15,1.47-21.91c0.92-6.95,1.25-13.98,0.24-20.92c-1.22-8.4,0.93-10.77,8.65-9.9
	c11.98,1.36,24.06,1.46,36.07,0.45c7.75-0.65,10.69,0.54,10.5,7.31c-0.35,12.7,0.33,25.42-0.09,38.11
	c-0.24,7.22,2.93,9.78,9.51,9.76c11.35-0.04,22.71,0.12,34.06-0.08c5.43-0.1,7.3,2,6.94,7.84c-0.62,10.15-0.96,20.34-0.06,30.47
	c0.61,6.9-1.84,8.84-7.58,8.73c-10.27-0.19-20.55-0.09-30.82,0c-11.56,0.11-11.95,0.55-11.95,11.81c0.01,16.76,0,33.52,0,50.29
	C1465.33,210.75,1465.28,210.75,1465.24,210.75z"/>
<radialGradient id="SVGID_00000150798997949480556740000018420858955147102624_" cx="216.1393" cy="191.2465" r="1273.2543" gradientUnits="userSpaceOnUse">
	<stop  offset="0" style="stop-color:#34638A"/>
	<stop  offset="0.5318" style="stop-color:#9CC5EB"/>
	<stop  offset="1" style="stop-color:#FFFFFF"/>
</radialGradient>
<path style="fill:url(#SVGID_00000150798997949480556740000018420858955147102624_);" d="M1343.22,214.51
	c0,34.04,0.09,68.08-0.05,102.11c-0.05,10.93-0.33,11.08-11.45,11.34c-11.34,0.27-22.7-0.15-34.02,0.39
	c-7.25,0.35-9.51-2.94-9.55-9.46c-0.08-14.32-0.46-28.63-0.53-42.94c-0.27-51.6-0.72-103.19-0.56-154.79
	c0.07-21.81-1.77-16.72,17.81-17.74c9.97-0.52,19.99,0.07,29.98-0.21c6.12-0.17,8.4,1.8,8.33,8.39c-0.33,34.3-0.15,68.6-0.15,102.89
	C1343.08,214.51,1343.15,214.51,1343.22,214.51z"/>
<radialGradient id="SVGID_00000079475183617627663420000015926044312056876726_" cx="216.1393" cy="191.2465" r="1273.2543" gradientUnits="userSpaceOnUse">
	<stop  offset="0" style="stop-color:#34638A"/>
	<stop  offset="0.5318" style="stop-color:#9CC5EB"/>
	<stop  offset="1" style="stop-color:#FFFFFF"/>
</radialGradient>
<path style="fill:url(#SVGID_00000079475183617627663420000015926044312056876726_);" d="M1316.38,10.13
	c19.23,0.3,34.2,15.03,33.9,33.38c-0.28,17.1-17.51,34.08-34.08,33.59c-17.66-0.53-36.38-17.44-36.39-32.9
	C1279.8,25.41,1296.53,9.83,1316.38,10.13z"/>
</svg>
