<svg viewBox="0 0 105 20" xmlns="http://www.w3.org/2000/svg">

    <defs>
        <path id="star" d="M9.54769 1.0015C10.1202 0.0797809 11.4615 0.0797815 12.034 1.0015L14.3951 4.80293C14.5964 5.12715 14.9165 5.35987 15.287 5.45146L19.6306 6.5252C20.6829 6.78532 21.097 8.0593 20.3988 8.88845L17.5138 12.3146C17.2682 12.6063 17.1461 12.9822 17.1736 13.3625L17.4957 17.8304C17.5737 18.9122 16.489 19.7 15.4844 19.2911L11.3426 17.6051C10.9888 17.4611 10.5928 17.4611 10.2391 17.6051L6.09731 19.2911C5.09273 19.7 4.00794 18.9122 4.08595 17.8304L4.40812 13.3625C4.43554 12.9822 4.31347 12.6063 4.0679 12.3146L1.18287 8.88845C0.484678 8.0593 0.89881 6.78532 1.9511 6.5252L6.29465 5.45146C6.66516 5.35987 6.98523 5.12715 7.18661 4.80293L9.54769 1.0015Z" />
    </defs>
    <use href="#star" x="0" fill="#227bf3" />
    <use href="#star" x="21" fill="#227bf3" />
    <use href="#star" x="42" fill="#227bf3" />
    <use href="#star" x="63" fill="#227bf3" />
    <use href="#star" x="84" fill="#227bf3" />

</svg>
